<?xml version="1.0" standalone="no"?>
<!DOCTYPE svg PUBLIC "-//W3C//DTD SVG 20010904//EN"
 "http://www.w3.org/TR/2001/REC-SVG-20010904/DTD/svg10.dtd">
<svg version="1.0" xmlns="http://www.w3.org/2000/svg"
 width="580.000000pt" height="430.000000pt" viewBox="0 0 580.000000 430.000000"
 preserveAspectRatio="xMidYMid meet">

<g transform="translate(0.000000,430.000000) scale(0.100000,-0.100000)"
fill="#000000" stroke="none">
<path d="M2455 2966 c-49 -21 -94 -76 -111 -133 -13 -43 -15 -116 -12 -440 3
-425 2 -418 66 -479 56 -54 58 -54 505 -54 l413 0 47 29 c28 19 55 46 69 73
23 43 23 44 23 459 l0 416 -30 48 c-20 32 -45 56 -74 72 l-44 23 -411 0 c-317
-1 -418 -4 -441 -14z m532 -210 c26 -28 33 -44 33 -76 0 -52 -22 -94 -60 -117
-26 -15 -30 -23 -30 -60 l0 -42 108 -3 107 -3 3 -78 c3 -78 3 -78 47 -121 41
-39 45 -47 45 -89 0 -40 -5 -53 -34 -85 -32 -34 -38 -37 -91 -37 -53 0 -59 3
-91 37 -27 30 -34 46 -34 79 0 49 22 90 61 113 25 15 29 23 29 62 l0 44 -185
0 -185 0 0 -45 c0 -39 3 -46 30 -60 30 -16 56 -54 60 -90 5 -48 -2 -70 -39
-106 -32 -32 -46 -39 -78 -39 -46 0 -101 32 -120 70 -7 14 -13 43 -13 64 0 34
7 46 45 82 44 43 44 43 47 121 l3 78 108 3 107 3 0 44 c0 39 -4 46 -29 59 -31
17 -61 70 -61 111 0 14 7 39 15 56 41 78 142 90 202 25z"/>
<path d="M1893 1723 c-23 -4 -33 -23 -13 -23 6 0 10 -17 10 -39 l0 -38 -49 5
c-43 4 -52 1 -82 -26 -32 -29 -34 -34 -34 -97 0 -61 3 -69 28 -91 30 -26 83
-32 118 -14 13 8 19 7 19 0 0 -7 14 -10 33 -8 17 2 31 6 30 11 -2 4 -3 79 -3
167 0 175 4 165 -57 153z m-22 -113 c17 -9 19 -22 19 -101 0 -84 -1 -90 -22
-98 -36 -13 -62 2 -76 45 -17 49 -7 119 19 145 22 22 32 23 60 9z"/>
<path d="M2173 1723 c-24 -5 -30 -18 -13 -28 6 -3 10 -21 10 -40 l0 -34 -48 6
c-29 3 -58 1 -70 -6 -60 -32 -71 -162 -18 -208 29 -24 68 -29 110 -13 17 6 26
6 26 0 0 -6 16 -10 36 -10 29 0 35 3 30 16 -3 9 -6 85 -6 170 0 168 4 159 -57
147z m-19 -116 c14 -10 16 -26 14 -102 l-3 -90 -40 0 c-36 0 -40 3 -53 37 -18
46 -8 122 19 149 22 22 38 24 63 6z"/>
<path d="M2863 1723 c-24 -5 -30 -18 -13 -28 15 -9 13 -268 -2 -283 -9 -9 -2
-12 33 -12 l44 0 -3 95 c-3 93 -3 95 22 106 50 23 58 9 54 -101 l-3 -100 40 0
40 0 -7 102 c-5 81 -10 105 -24 115 -24 17 -76 16 -100 -2 -32 -24 -37 -17
-32 50 6 70 7 69 -49 58z"/>
<path d="M3393 1723 c-23 -4 -33 -23 -13 -23 13 0 13 -283 0 -296 -6 -6 6 -8
33 -6 l42 4 -3 164 c-3 178 1 168 -59 157z"/>
<path d="M3533 1723 c-25 -5 -29 -13 -12 -30 7 -7 9 -60 7 -152 l-3 -141 35 0
35 0 -3 165 c-3 179 1 170 -59 158z"/>
<path d="M2618 1699 c-54 -28 -81 -86 -76 -161 7 -95 64 -148 160 -148 73 0
98 13 98 52 l-1 33 -16 -30 c-21 -39 -30 -45 -76 -45 -73 0 -103 58 -95 187 4
59 7 69 36 94 52 46 99 37 139 -27 11 -17 12 -16 12 12 1 24 -5 33 -24 42 -39
18 -115 14 -157 -9z"/>
<path d="M1168 1698 c17 -17 17 -269 0 -286 -9 -9 -3 -12 28 -12 21 0 50 -3
64 -5 24 -5 24 -5 2 4 -22 10 -22 13 -20 161 l3 150 -44 0 c-35 0 -42 -3 -33
-12z"/>
<path d="M1285 1703 c35 -9 45 -24 45 -68 0 -36 -5 -47 -27 -64 -27 -19 -27
-20 -6 -21 63 -1 71 -115 10 -140 -21 -8 -20 -9 6 -9 34 -1 82 23 91 44 19 51
2 87 -53 111 l-26 12 27 10 c32 13 39 24 40 64 1 43 -31 68 -86 67 -22 -1 -32
-4 -21 -6z"/>
<path d="M1477 1623 c-22 -4 -27 -8 -21 -21 4 -9 7 -54 8 -100 1 -70 4 -86 20
-98 26 -18 60 -18 96 1 27 14 30 14 30 0 0 -12 8 -15 31 -13 l32 3 -2 115 c-1
63 -3 115 -4 116 -1 1 -15 0 -32 -3 l-30 -5 0 -96 0 -96 -28 -10 c-46 -17 -58
10 -56 119 1 49 -2 90 -7 90 -5 1 -22 0 -37 -2z"/>
<path d="M3160 1617 c-31 -16 -36 -62 -6 -62 14 0 22 10 28 33 8 29 13 33 36
30 24 -3 27 -7 30 -49 l3 -46 -39 -7 c-75 -12 -116 -71 -76 -110 20 -20 63
-20 92 0 20 14 24 14 38 0 17 -17 59 -21 68 -7 3 5 -1 11 -9 15 -12 4 -15 24
-15 89 0 74 -3 86 -23 105 -27 25 -87 29 -127 9z m90 -147 c0 -29 -5 -42 -19
-50 -11 -5 -22 -10 -25 -10 -10 0 -36 32 -36 46 0 21 37 54 60 54 17 0 20 -7
20 -40z"/>
<path d="M3694 1611 c-61 -37 -72 -138 -20 -190 36 -36 124 -38 158 -3 12 12
17 22 11 22 -7 0 -15 -4 -18 -10 -3 -5 -23 -10 -44 -10 -57 0 -76 27 -75 105
0 69 14 95 49 95 32 0 48 -24 43 -65 -4 -33 -2 -35 24 -35 25 0 28 4 28 30 0
68 -88 103 -156 61z"/>
<path d="M3918 1618 c-29 -10 -35 -22 -18 -33 13 -8 13 -168 0 -181 -6 -6 6
-8 33 -6 l42 4 0 95 0 96 28 10 c49 16 59 -3 55 -110 l-3 -93 35 0 35 0 -5 99
c-3 61 -11 105 -19 115 -17 20 -63 21 -102 1 -26 -14 -30 -14 -35 0 -7 17 -9
17 -46 3z"/>
<path d="M4195 1605 c-52 -51 -20 -115 61 -122 63 -6 104 21 104 70 0 18 -4
37 -8 43 -27 41 -121 46 -157 9z m103 3 c16 -16 15 -80 -1 -102 -8 -11 -23
-17 -38 -14 -20 2 -25 9 -27 42 -5 60 5 86 31 86 13 0 28 -5 35 -12z"/>
<path d="M4370 1620 c-12 -8 -11 -10 8 -10 12 0 22 5 22 10 0 13 -11 13 -30 0z"/>
<path d="M4464 1596 c-30 -30 -34 -40 -34 -86 0 -62 11 -85 50 -105 45 -23 94
-19 127 11 22 20 23 23 6 15 -34 -17 -81 -13 -102 8 -15 15 -19 33 -19 78 0
68 18 103 53 103 19 0 26 -7 33 -32 5 -19 5 -40 0 -50 -7 -16 -4 -18 28 -18
36 0 36 1 30 33 -9 46 -48 77 -98 77 -32 0 -47 -7 -74 -34z"/>
<path d="M2295 1593 c7 -16 32 -72 55 -125 39 -94 40 -98 25 -128 -17 -34 -22
-35 -48 -15 -24 17 -47 9 -47 -16 0 -44 66 -36 93 11 10 17 39 85 63 152 25
67 50 128 56 135 8 10 5 13 -10 13 -14 0 -20 -5 -16 -13 5 -13 -31 -124 -46
-140 -9 -10 -64 128 -56 142 5 7 -8 11 -38 11 l-44 0 13 -27z"/>
<path d="M4193 1468 c-21 -28 -23 -37 -7 -52 14 -15 14 -18 -5 -42 -26 -34
-26 -46 0 -70 29 -26 133 -27 172 -1 41 27 54 60 34 91 -13 19 -33 28 -92 41
-41 9 -79 24 -83 32 -7 12 -10 12 -19 1z m116 -88 c56 -15 52 -67 -7 -84 -66
-19 -123 25 -102 78 9 25 13 26 47 20 21 -4 49 -10 62 -14z"/>
</g>
</svg>
